<svg width="24" height="25" viewBox="0 0 24 25" fill="none" xmlns="http://www.w3.org/2000/svg">
<path d="M12 12.5C15.7875 12.5 18.8571 9.70215 18.8571 6.25C18.8571 2.79785 15.7875 0 12 0C8.2125 0 5.14286 2.79785 5.14286 6.25C5.14286 9.70215 8.2125 12.5 12 12.5ZM16.8 14.0625H15.9054C14.7161 14.5605 13.3929 14.8437 12 14.8437C10.6071 14.8437 9.28929 14.5605 8.09464 14.0625H7.2C3.225 14.0625 0 17.002 0 20.625V22.6562C0 23.9502 1.15179 25 2.57143 25H21.4286C22.8482 25 24 23.9502 24 22.6562V20.625C24 17.002 20.775 14.0625 16.8 14.0625Z" fill="#FF5E00"/>
</svg>
