<svg width="14" height="12" viewBox="0 0 14 12" fill="none" xmlns="http://www.w3.org/2000/svg">
<path d="M12.1567 1.68926C11.8587 1.39117 11.505 1.15472 11.1156 0.993387C10.7263 0.832059 10.3089 0.749023 9.8875 0.749023C9.46605 0.749023 9.04873 0.832059 8.65937 0.993387C8.27002 1.15472 7.91627 1.39117 7.61833 1.68926L7 2.30759L6.38166 1.68926C5.77984 1.08743 4.9636 0.749335 4.1125 0.749335C3.2614 0.749335 2.44515 1.08743 1.84333 1.68926C1.24151 2.29108 0.903412 3.10732 0.903412 3.95842C0.903412 4.80952 1.24151 5.62577 1.84333 6.22759L7 11.3843L12.1567 6.22759C12.4547 5.92965 12.6912 5.5759 12.8525 5.18655C13.0139 4.79719 13.0969 4.37987 13.0969 3.95842C13.0969 3.53697 13.0139 3.11965 12.8525 2.7303C12.6912 2.34095 12.4547 1.9872 12.1567 1.68926Z" stroke="#0856AF" stroke-linecap="round" stroke-linejoin="round"/>
</svg>
