<svg width="28" height="24" viewBox="0 0 28 24" fill="none" xmlns="http://www.w3.org/2000/svg">
<path d="M0.8 1.54879H3.5584C3.88714 1.54879 4.20246 1.67498 4.43521 1.89971C4.66797 2.12443 4.79915 2.42933 4.8 2.74755V17.9257C4.80085 18.7149 5.12511 19.4716 5.70164 20.0296C6.27817 20.5877 7.05987 20.9016 7.8752 20.9024H9.7408C9.64801 21.1507 9.60038 21.4128 9.6 21.6768C9.6 22.293 9.85286 22.8839 10.3029 23.3196C10.753 23.7552 11.3635 24 12 24C12.6365 24 13.247 23.7552 13.6971 23.3196C14.1471 22.8839 14.4 22.293 14.4 21.6768C14.3996 21.4128 14.352 21.1507 14.2592 20.9024H16.1408C16.048 21.1507 16.0004 21.4128 16 21.6768C16 22.293 16.2529 22.8839 16.7029 23.3196C17.153 23.7552 17.7635 24 18.4 24C19.0365 24 19.647 23.7552 20.0971 23.3196C20.5471 22.8839 20.8 22.293 20.8 21.6768C20.7996 21.4128 20.752 21.1507 20.6592 20.9024H22.4C22.6122 20.9024 22.8157 20.8208 22.9657 20.6756C23.1157 20.5304 23.2 20.3334 23.2 20.128C23.2 19.9227 23.1157 19.7257 22.9657 19.5805C22.8157 19.4352 22.6122 19.3536 22.4 19.3536H7.8752C7.48532 19.3528 7.11155 19.203 6.83526 18.9367C6.55897 18.6704 6.40253 18.3093 6.4 17.9319V17.811H20.8C20.9423 17.8113 21.082 17.7746 21.2046 17.7049C21.3273 17.6352 21.4285 17.5349 21.4976 17.4146L26.88 8.13113H27.2C27.4122 8.13113 27.6157 8.04954 27.7657 7.90432C27.9157 7.75909 28 7.56212 28 7.35674V4.25916C28 4.05378 27.9157 3.85681 27.7657 3.71158C27.6157 3.56636 27.4122 3.48477 27.2 3.48477H6.4V2.74755C6.39915 2.01857 6.0994 1.31973 5.56658 0.80455C5.03377 0.289373 4.31149 -4.62231e-07 3.5584 0H0.8C0.587827 6.12141e-09 0.384344 0.0815876 0.234315 0.226815C0.0842855 0.372042 0 0.569011 0 0.774393C0 0.979775 0.0842855 1.17675 0.234315 1.32197C0.384344 1.4672 0.587827 1.54879 0.8 1.54879V1.54879ZM26.4 5.03356V6.58234H6.4V5.03356H26.4Z" fill="#FF5E00"/>
</svg>
