<svg width="9" height="10" viewBox="0 0 9 10" fill="none" xmlns="http://www.w3.org/2000/svg">
<path fill-rule="evenodd" clip-rule="evenodd" d="M0.192931 0.783942H3.34106V0.305992C3.34106 0.137696 3.4799 0 3.65014 0H5.38824C5.5584 0 5.69733 0.137615 5.69733 0.305992V0.784023H8.80707C8.91336 0.784023 9 0.870043 9 0.975187V1.91221H0V0.975106C0 0.869962 0.0867242 0.783942 0.192931 0.783942ZM0.714344 2.40928H8.35273C8.51196 2.40928 8.65656 2.53941 8.64217 2.69607L7.99572 9.71346C7.98142 9.8702 7.86502 10 7.70612 10H1.35183C1.19285 10 1.07628 9.87044 1.06215 9.71346L0.424661 2.69607C0.410522 2.53884 0.554953 2.40928 0.714344 2.40928ZM5.67834 3.49921H6.48935V8.81452H5.67834V3.49921ZM2.47201 3.49921H3.28311V8.81452H2.47201V3.49921ZM4.07497 3.49921H4.88623V8.81452H4.07497V3.49921Z" fill="#FF5E00"/>
</svg>
