<svg width="17" height="16" viewBox="0 0 17 16" fill="none" xmlns="http://www.w3.org/2000/svg">
<g clip-path="url(#clip0_2471_6080)">
<path fill-rule="evenodd" clip-rule="evenodd" d="M16.9853 2.23506C16.9853 2.96741 16.375 3.56654 15.6288 3.56654H12.7558C12.9574 3.17015 13.071 2.72298 13.071 2.24973C13.071 1.7648 12.9518 1.30717 12.7407 0.903585H15.6288C16.375 0.903585 16.9853 1.50272 16.9853 2.23506ZM12.3552 13.7503C12.3552 14.9928 11.3289 16 10.063 16C8.79717 16 7.77105 14.9928 7.77105 13.7503C7.77105 12.5079 8.79717 11.5005 10.063 11.5005C11.3289 11.5005 12.3552 12.5077 12.3552 13.7503ZM16.9985 13.7355C16.9985 14.4678 16.388 15.0669 15.6419 15.0669H12.7558C12.9574 14.6706 13.071 14.2234 13.071 13.7503C13.071 13.2653 12.9518 12.8077 12.7407 12.4041H15.6419C16.3881 12.4041 16.9985 13.0033 16.9985 13.7355ZM7.36999 15.0669H1.35801C0.611906 15.0669 0.00152181 14.4678 0.00152181 13.7355C0.00152181 13.0031 0.611906 12.404 1.35801 12.404H7.38507C7.17409 12.8076 7.05483 13.2652 7.05483 13.7501C7.05483 14.2234 7.16842 14.6706 7.36999 15.0669ZM3.9188 7.97352C3.9188 9.21592 4.94505 10.2232 6.21092 10.2232C7.47665 10.2232 8.50291 9.21592 8.50291 7.97352C8.50291 6.73099 7.47665 5.72366 6.21092 5.72366C4.94505 5.72352 3.9188 6.73085 3.9188 7.97352ZM0 7.95872C0 8.69107 0.610661 9.2902 1.35649 9.2902H3.52507C3.32349 8.89367 3.20991 8.45247 3.20991 7.97352C3.20991 7.49443 3.32903 7.03096 3.54015 6.62724H1.35649C0.610384 6.62724 0 7.22637 0 7.95872ZM8.91075 9.2902H15.6435C16.3895 9.2902 17 8.69107 17 7.95872C17 7.22624 16.3896 6.62711 15.6435 6.62711H8.89581C9.10679 7.03083 9.22604 7.4943 9.22604 7.97338C9.22604 8.45247 9.11232 8.89367 8.91075 9.2902ZM12.3552 2.24973C12.3552 3.49226 11.3289 4.49946 10.063 4.49946C8.79717 4.49946 7.77091 3.4924 7.77091 2.24973C7.77091 1.0072 8.79703 0 10.0629 0C11.3288 0 12.3552 1.0072 12.3552 2.24973ZM7.36999 3.56654H1.36313C0.617025 3.56654 0.00664063 2.96727 0.00664063 2.23506C0.00664063 1.50272 0.617025 0.903585 1.36313 0.903585H7.38507C7.17409 1.30717 7.05483 1.7648 7.05483 2.24973C7.05483 2.72298 7.16842 3.17015 7.36999 3.56654Z" fill="#98A2B3"/>
</g>
<defs>
<clipPath id="clip0_2471_6080">
<rect width="17" height="16" fill="white"/>
</clipPath>
</defs>
</svg>
