<svg width="11" height="12" viewBox="0 0 11 12" fill="none" xmlns="http://www.w3.org/2000/svg">
<g clip-path="url(#clip0_2540_193)">
<path fill-rule="evenodd" clip-rule="evenodd" d="M3.16155 1.62603C3.93197 1.67857 4.73474 2.03203 5.5032 2.7474C6.27146 2.03223 7.07353 1.67944 7.84323 1.62807C8.71192 1.57009 9.47987 1.90053 10.0355 2.42188C11.1279 3.44693 11.471 5.30175 10.1154 6.57755C10.1109 6.58186 10.1062 6.58606 10.1014 6.59014L5.76693 10.2854C5.61725 10.4129 5.38915 10.4129 5.23946 10.2854L0.905005 6.59014C0.900212 6.58606 0.895529 6.58186 0.890956 6.57755C-0.471653 5.2951 -0.13044 3.44006 0.965552 2.41582C1.52254 1.89529 2.29206 1.56674 3.16155 1.62603Z" fill="#FF5E00"/>
</g>
<defs>
<clipPath id="clip0_2540_193">
<rect width="11" height="10.3529" fill="white" transform="translate(0 0.823486)"/>
</clipPath>
</defs>
</svg>
