<svg width="28" height="25" viewBox="0 0 28 25" fill="none" xmlns="http://www.w3.org/2000/svg">
<path d="M0.8 2.53237H3.5584C3.88714 2.53236 4.20246 2.65848 4.43521 2.88305C4.66797 3.10762 4.79915 3.41232 4.8 3.73032V18.8982C4.80085 19.6869 5.12511 20.4431 5.70164 21.0008C6.27817 21.5585 7.05987 21.8722 7.8752 21.873H9.7408C9.64801 22.1212 9.60038 22.383 9.6 22.6469C9.6 23.2626 9.85286 23.8531 10.3029 24.2885C10.753 24.7239 11.3635 24.9685 12 24.9685C12.6365 24.9685 13.247 24.7239 13.6971 24.2885C14.1471 23.8531 14.4 23.2626 14.4 22.6469C14.3996 22.383 14.352 22.1212 14.2592 21.873H16.1408C16.048 22.1212 16.0004 22.383 16 22.6469C16 23.2626 16.2529 23.8531 16.7029 24.2885C17.153 24.7239 17.7635 24.9685 18.4 24.9685C19.0365 24.9685 19.647 24.7239 20.0971 24.2885C20.5471 23.8531 20.8 23.2626 20.8 22.6469C20.7996 22.383 20.752 22.1212 20.6592 21.873H22.4C22.6122 21.873 22.8157 21.7915 22.9657 21.6463C23.1157 21.5012 23.2 21.3044 23.2 21.0991C23.2 20.8939 23.1157 20.6971 22.9657 20.5519C22.8157 20.4068 22.6122 20.3253 22.4 20.3253H7.8752C7.48532 20.3245 7.11155 20.1747 6.83526 19.9086C6.55897 19.6425 6.40253 19.2816 6.4 18.9044V18.7837H20.8C20.9423 18.7839 21.082 18.7473 21.2046 18.6776C21.3273 18.6079 21.4285 18.5078 21.4976 18.3875L26.88 9.11029H27.2C27.4122 9.11029 27.6157 9.02876 27.7657 8.88363C27.9157 8.7385 28 8.54166 28 8.33642V5.24092C28 5.03568 27.9157 4.83884 27.7657 4.69371C27.6157 4.54858 27.4122 4.46705 27.2 4.46705H6.4V3.73032C6.39915 3.00183 6.0994 2.30346 5.56658 1.78863C5.03377 1.2738 4.31149 0.984619 3.5584 0.984619H0.8C0.587827 0.984619 0.384344 1.06615 0.234315 1.21128C0.0842855 1.35641 0 1.55325 0 1.75849C0 1.96374 0.0842855 2.16057 0.234315 2.3057C0.384344 2.45083 0.587827 2.53237 0.8 2.53237V2.53237ZM26.4 6.0148V7.56254H6.4V6.0148H26.4Z" fill="#FF7300"/>
</svg>
