<svg width="42" height="42" viewBox="0 0 42 42" fill="none" xmlns="http://www.w3.org/2000/svg">
<circle cx="21" cy="21" r="20.5" fill="white" stroke="#F1F1F5"/>
<path d="M23.625 14.8751C23.5098 14.8744 23.3957 14.8965 23.2891 14.94C23.1825 14.9836 23.0855 15.0478 23.0037 15.1288L17.7537 20.3788C17.5908 20.5428 17.4993 20.7646 17.4993 20.9957C17.4993 21.2269 17.5908 21.4487 17.7537 21.6126L23.0037 26.8626C23.1711 27.0059 23.3865 27.0809 23.6067 27.0723C23.8269 27.0638 24.0358 26.9725 24.1916 26.8167C24.3474 26.6609 24.4387 26.452 24.4472 26.2318C24.4558 26.0116 24.3808 25.7962 24.2375 25.6288L19.6087 21.0001L24.2375 16.3713C24.3604 16.2495 24.4443 16.0939 24.4788 15.9243C24.5133 15.7548 24.4967 15.5788 24.4311 15.4186C24.3655 15.2584 24.254 15.1213 24.1105 15.0246C23.967 14.9278 23.7981 14.8758 23.625 14.8751Z" fill="#06161C"/>
</svg>
