<svg width="24" height="22" viewBox="0 0 24 22" fill="none" xmlns="http://www.w3.org/2000/svg">
<path fill-rule="evenodd" clip-rule="evenodd" d="M6.89795 0.860207C8.57886 0.982007 10.3304 1.8014 12.007 3.45975C13.6832 1.80186 15.4332 0.98403 17.1125 0.864939C19.0078 0.730522 20.6834 1.49655 21.8957 2.70514C24.2791 5.08138 25.0275 9.38118 22.0701 12.3387C22.0601 12.3487 22.0498 12.3585 22.0394 12.3679L12.5824 20.9341C12.2558 21.2298 11.7582 21.2298 11.4316 20.9341L1.97457 12.3679C1.96411 12.3585 1.9539 12.3487 1.94392 12.3387C-1.02905 9.36577 -0.284582 5.06547 2.10667 2.69108C3.32191 1.4844 5.00087 0.722756 6.89795 0.860207Z" fill="#FF7300"/>
</svg>
