<svg width="11" height="11" viewBox="0 0 11 11" fill="none" xmlns="http://www.w3.org/2000/svg">
<g clip-path="url(#clip0_2437_137)">
<path d="M8.78283 1.86087e-07C9.14754 -0.00015041 9.50666 0.0911064 9.82836 0.265684C10.1501 0.440262 10.4244 0.692771 10.6271 1.00084C10.8298 1.3089 10.9546 1.66301 10.9904 2.03178C11.0262 2.40056 10.9719 2.77261 10.8324 3.11497C10.6928 3.45734 10.4723 3.75944 10.1904 3.99452C9.90843 4.22959 9.57378 4.39038 9.21607 4.46263C8.85835 4.53488 8.48862 4.51637 8.13964 4.40873C7.79065 4.30109 7.47318 4.10765 7.21536 3.84554C7.19567 3.82553 7.17687 3.80552 7.15807 3.7846L4.37047 4.96701C4.43444 5.23323 4.45051 5.50901 4.41792 5.78105L7.25117 7.12262C7.64308 6.74457 8.15787 6.52572 8.69798 6.50754C9.23809 6.48935 9.766 6.67309 10.1817 7.02395C10.5974 7.37481 10.872 7.8684 10.9534 8.4112C11.0348 8.95401 10.9175 9.50831 10.6236 9.96908C10.3297 10.4298 9.87963 10.7651 9.35873 10.9112C8.83782 11.0574 8.28224 11.0043 7.79726 10.7621C7.31228 10.5199 6.93159 10.1053 6.72733 9.597C6.52307 9.08866 6.50943 8.52185 6.689 8.00397L4.05895 6.75426C3.8049 7.14048 3.43956 7.43746 3.01295 7.60454C2.58635 7.77162 2.11934 7.80063 1.67588 7.6876C1.23242 7.57457 0.834186 7.32502 0.535719 6.97312C0.237253 6.62123 0.0531425 6.18419 0.00860048 5.72187C-0.0359415 5.25954 0.0612626 4.79453 0.286902 4.3905C0.512541 3.98648 0.855583 3.66321 1.26905 3.46494C1.68252 3.26668 2.1462 3.20312 2.5966 3.28298C3.04699 3.36284 3.46208 3.5822 3.78502 3.91103C3.82441 3.95105 3.8629 3.99289 3.89871 4.03564L6.6505 2.8696C6.55662 2.53443 6.54055 2.1817 6.60354 1.83915C6.66654 1.49659 6.80688 1.17355 7.01355 0.895437C7.22021 0.617319 7.48755 0.391702 7.79455 0.236328C8.10155 0.080953 8.43985 5.69096e-05 8.78283 1.86087e-07Z" fill="#0856AF"/>
</g>
<defs>
<clipPath id="clip0_2437_137">
<rect width="11" height="11" fill="white"/>
</clipPath>
</defs>
</svg>
