<svg width="49" height="9" viewBox="0 0 49 9" fill="none" xmlns="http://www.w3.org/2000/svg">
<path d="M2.05055 7.74438L2.62257 5.2715L0.704102 3.60824L3.23859 3.38823L4.22422 1.05615L5.20985 3.38823L7.74434 3.60824L5.82588 5.2715L6.39789 7.74438L4.22422 6.43313L2.05055 7.74438Z" fill="#FF7300"/>
<path d="M12.1885 7.74438L12.7605 5.2715L10.842 3.60824L13.3765 3.38823L14.3622 1.05615L15.3478 3.38823L17.8823 3.60824L15.9638 5.2715L16.5358 7.74438L14.3622 6.43313L12.1885 7.74438Z" fill="#FF7300"/>
<path d="M22.3264 7.74438L22.8984 5.2715L20.98 3.60824L23.5145 3.38823L24.5001 1.05615L25.4857 3.38823L28.0202 3.60824L26.1018 5.2715L26.6738 7.74438L24.5001 6.43313L22.3264 7.74438Z" fill="#FF7300"/>
<path d="M32.4644 7.74438L33.0364 5.2715L31.1179 3.60824L33.6524 3.38823L34.638 1.05615L35.6237 3.38823L38.1582 3.60824L36.2397 5.2715L36.8117 7.74438L34.638 6.43313L32.4644 7.74438Z" fill="#FF7300"/>
<path d="M42.6023 7.74438L43.1743 5.2715L41.2559 3.60824L43.7903 3.38823L44.776 1.05615L45.7616 3.38823L48.2961 3.60824L46.3776 5.2715L46.9497 7.74438L44.776 6.43313L42.6023 7.74438Z" fill="#979899"/>
</svg>
