<svg width="9" height="9" viewBox="0 0 9 9" fill="none" xmlns="http://www.w3.org/2000/svg">
<g clip-path="url(#clip0_2460_2272)">
<path fill-rule="evenodd" clip-rule="evenodd" d="M4.49996 0C6.98527 0 9 2.01467 9 4.49993C9 6.98525 6.98527 8.99993 4.49996 8.99993C2.01473 9 0 6.98525 0 4.49993C0 2.01467 2.01473 0 4.49996 0ZM2.49798 4.95688L2.49688 4.95586C2.43938 4.90327 2.40848 4.83245 2.40489 4.76038C2.4013 4.68845 2.42503 4.61499 2.47696 4.55698C2.47769 4.55618 2.47835 4.55544 2.47908 4.55471C2.5316 4.49729 2.60242 4.46631 2.67449 4.46272C2.74693 4.45913 2.82083 4.48323 2.87898 4.53582L3.8279 5.39626L6.10491 3.01157C6.1591 2.95474 6.2311 2.92515 6.30405 2.92339C6.37671 2.92156 6.45009 2.94749 6.507 3.00154C6.56391 3.05566 6.59343 3.12788 6.59526 3.20068C6.59709 3.27341 6.57109 3.34695 6.51704 3.40378L4.04872 5.98894C4.04704 5.9907 4.04521 5.99238 4.04338 5.99385C3.99101 6.04622 3.9226 6.07405 3.85309 6.07661C3.78176 6.07932 3.70932 6.05515 3.65212 6.00337L2.49886 4.95762L2.49798 4.95688Z" fill="#0856AF"/>
</g>
<defs>
<clipPath id="clip0_2460_2272">
<rect width="9" height="9" fill="white"/>
</clipPath>
</defs>
</svg>
