<svg width="22" height="22" viewBox="0 0 22 22" fill="none" xmlns="http://www.w3.org/2000/svg">
<circle cx="11" cy="11" r="11" fill="#FF7300"/>
<g clip-path="url(#clip0_2475_391)">
<path d="M5.30236 12.4826C5.02052 12.2119 4.87484 11.8518 4.86747 11.4892C4.8602 11.1267 4.99135 10.7609 5.26189 10.479C5.53223 10.1973 5.89226 10.0515 6.25465 10.0442C6.61723 10.0367 6.98276 10.1675 7.2648 10.4384L9.69974 12.782L14.5475 6.62236L14.7212 6.75491L14.5473 6.62177C14.5612 6.60379 14.5769 6.58846 14.5944 6.57599C14.8828 6.32612 15.2448 6.21331 15.5986 6.23257V6.23218L15.6159 6.23375C15.9718 6.25733 16.3195 6.41553 16.5762 6.70205C16.8373 6.99339 16.9557 7.36343 16.9359 7.72512H16.9363L16.9347 7.74241C16.9116 8.09201 16.7588 8.43366 16.482 8.68884L10.6641 15.7723L10.6645 15.7727C10.6536 15.7865 10.6413 15.7984 10.628 15.8088C10.3556 16.0481 10.0115 16.1654 9.66949 16.1595C9.32458 16.1535 8.98037 16.0223 8.71258 15.7649L5.30236 12.4826Z" fill="white"/>
</g>
<defs>
<clipPath id="clip0_2475_391">
<rect width="12.0708" height="9.9292" fill="white" transform="translate(4.86719 6.23022)"/>
</clipPath>
</defs>
</svg>
