<svg width="30" height="30" viewBox="0 0 30 30" fill="none" xmlns="http://www.w3.org/2000/svg">
<mask id="mask0_2475_238" style="mask-type:alpha" maskUnits="userSpaceOnUse" x="0" y="0" width="30" height="30">
<circle cx="15" cy="15" r="15" fill="#E9F5FA"/>
</mask>
<g mask="url(#mask0_2475_238)">
<circle opacity="0.1" cx="15" cy="15" r="15" fill="#FF7B0E"/>
<path d="M7.82243 27.7304C7.82243 27.7304 6.06846 26.2417 7.10609 23.8113C8.14373 21.381 11.1751 21.0221 14.0937 21.0212C18.5463 21.02 23.8649 22.5659 20.3166 27.7297C20.3166 27.7304 15.899 30.6778 7.82243 27.7304Z" fill="#FF7300"/>
<path d="M12.2145 24.8204C12.1863 24.8204 12.1589 24.8113 12.1361 24.7946C12.1134 24.7779 12.0965 24.7543 12.0878 24.7273C11.7623 23.7105 10.8643 23.0709 10.8548 23.0645C10.8266 23.0438 10.8075 23.0128 10.8017 22.9782C10.7958 22.9435 10.8037 22.908 10.8236 22.8791C10.8434 22.8502 10.8737 22.8303 10.9079 22.8237C10.9422 22.8171 10.9776 22.8242 11.0066 22.8437C11.6185 23.2974 12.083 23.9243 12.3413 24.6447C12.3467 24.6615 12.3487 24.6792 12.3473 24.6968C12.3458 24.7144 12.341 24.7316 12.333 24.7473C12.325 24.763 12.314 24.777 12.3006 24.7884C12.2873 24.7998 12.2718 24.8084 12.2551 24.8138C12.242 24.8181 12.2283 24.8203 12.2145 24.8204Z" fill="#FF7300"/>
<path d="M14.1038 26.6273C14.0815 26.6273 14.0595 26.6217 14.0399 26.6109C14.0203 26.6 14.0037 26.5844 13.9916 26.5654C12.8302 24.7401 9.37333 24.2116 9.33886 24.2066C9.3039 24.2015 9.27239 24.1825 9.25127 24.1539C9.23015 24.1254 9.22115 24.0895 9.22625 24.0542C9.23134 24.0189 9.25012 23.9872 9.27845 23.9659C9.30677 23.9446 9.34233 23.9355 9.37729 23.9406C9.52411 23.9623 12.9882 24.492 14.2155 26.4203C14.2284 26.4406 14.2356 26.464 14.2364 26.4881C14.2373 26.5122 14.2317 26.5361 14.2202 26.5572C14.2088 26.5784 14.1919 26.5961 14.1714 26.6084C14.1508 26.6207 14.1274 26.6273 14.1035 26.6273H14.1038Z" fill="#FF7300"/>
<path d="M26.0822 32.3713H2.44556C2.44556 32.3713 2.68296 29.3968 4.10995 28.8208C4.68656 28.5881 6.00794 27.9249 7.37911 27.2165C9.29486 26.2269 11.3071 25.1501 11.5119 25.0399L11.5291 25.0305L11.7097 25.0717C11.9357 25.1228 12.1626 25.1665 12.3902 25.2029C12.6152 25.2395 12.8408 25.2691 13.0671 25.2916C14.3178 25.4156 15.5802 25.3278 16.8023 25.0319L16.8079 25.0305C16.8079 25.0305 18.354 25.8343 20.078 26.7097C20.2985 26.8217 20.5223 26.9357 20.7459 27.0481C22.2697 27.8175 23.7952 28.5697 24.4175 28.8208C25.8443 29.3968 26.0822 32.3713 26.0822 32.3713Z" fill="#FF7300"/>
<path d="M15.3611 28.585C14.275 28.5827 13.2021 28.3439 12.2158 27.885C11.5074 27.5673 10.8549 27.1355 10.2839 26.6065C10.2723 26.5949 10.2631 26.5811 10.2569 26.5658C10.2506 26.5506 10.2473 26.5343 10.2473 26.5178C10.2473 26.4845 10.2603 26.4526 10.2836 26.429C10.3069 26.4054 10.3386 26.3921 10.3716 26.3921C10.4046 26.392 10.4362 26.4052 10.4596 26.4287C11.0137 26.9371 11.6446 27.353 12.3285 27.6609C13.8627 28.3745 15.5957 28.5259 17.2286 28.0888C17.2606 28.0804 17.2946 28.0852 17.3231 28.1021C17.3516 28.119 17.3722 28.1466 17.3806 28.1788C17.3889 28.2111 17.3841 28.2454 17.3674 28.2741C17.3507 28.3029 17.3233 28.3237 17.2913 28.3321C16.6612 28.4991 16.0126 28.5841 15.3611 28.585V28.585Z" fill="#FF7300"/>
<path d="M14.7483 29.7943C14.2853 29.7932 13.8237 29.7438 13.3708 29.6471C13.3548 29.6437 13.3396 29.6372 13.3261 29.6279C13.3126 29.6186 13.301 29.6068 13.2921 29.593C13.2831 29.5792 13.2769 29.5637 13.2739 29.5475C13.2709 29.5313 13.271 29.5147 13.2744 29.4985C13.2777 29.4824 13.2841 29.4671 13.2934 29.4535C13.3026 29.4398 13.3143 29.4282 13.328 29.4191C13.3417 29.4101 13.357 29.4039 13.373 29.4008C13.3891 29.3978 13.4056 29.3979 13.4216 29.4013C15.8793 29.919 17.4159 28.8318 17.4311 28.8208C17.4443 28.8108 17.4594 28.8035 17.4755 28.7994C17.4915 28.7954 17.5082 28.7946 17.5246 28.7971C17.541 28.7996 17.5567 28.8054 17.5708 28.8141C17.5849 28.8228 17.5972 28.8343 17.6068 28.8479C17.6165 28.8614 17.6234 28.8768 17.6271 28.8931C17.6308 28.9094 17.6312 28.9262 17.6284 28.9427C17.6256 28.9591 17.6195 28.9749 17.6106 28.9889C17.6016 29.003 17.59 29.0151 17.5764 29.0246C17.5233 29.0642 16.4893 29.7943 14.7483 29.7943Z" fill="#FF7300"/>
<path d="M16.9284 25.638C16.9284 25.638 16.4648 27.108 14.3349 27.108C11.8505 27.108 11.2656 25.7717 11.2656 25.7717C11.4603 25.2545 11.6155 24.7231 11.7299 24.1821V24.1821C11.8726 23.5307 11.9393 22.8647 11.9286 22.1977L16.2932 22.0239C16.3337 22.3967 16.3993 22.8357 16.4734 23.2773C16.6715 24.4494 16.9284 25.638 16.9284 25.638Z" fill="#FFB8A1"/>
<path d="M16.475 23.2772C15.7986 23.7518 14.3199 24.4583 11.7302 24.1829C11.8729 23.5314 11.9396 22.8652 11.9289 22.198L16.2948 22.0242C16.3358 22.396 16.4014 22.8351 16.475 23.2772Z" fill="#3F2037"/>
<path d="M10.2639 16.4558C10.2639 16.4558 8.91287 14.6005 7.86187 15.6985C6.81087 16.7965 8.83774 20.6207 10.6768 19.7876L10.2639 16.4558Z" fill="#FFB8A1"/>
<path d="M9.61934 18.648C9.59683 18.648 9.57509 18.6398 9.55812 18.6249C9.54115 18.61 9.53009 18.5894 9.52697 18.5669C9.34931 17.2778 8.33381 16.4867 8.32347 16.4788C8.30377 16.4637 8.29082 16.4414 8.28748 16.4166C8.28413 16.3919 8.29066 16.3669 8.30563 16.347C8.3206 16.3271 8.34278 16.3141 8.36729 16.3107C8.3918 16.3073 8.41664 16.3139 8.43634 16.329C9.1136 16.8856 9.56688 17.6719 9.71153 18.541C9.71492 18.5657 9.70844 18.5908 9.69351 18.6107C9.67858 18.6306 9.65643 18.6437 9.63192 18.6472C9.62775 18.6478 9.62355 18.6481 9.61934 18.648V18.648Z" fill="#FF8A8A"/>
<path d="M9.33633 17.7219C9.32104 17.7219 9.30598 17.7181 9.29249 17.7109C9.27899 17.7037 9.26747 17.6932 9.25895 17.6804C9.12333 17.4782 8.71768 17.4575 8.57344 17.4665C8.56093 17.4678 8.54828 17.4666 8.53626 17.4628C8.52425 17.4591 8.5131 17.4529 8.5035 17.4447C8.4939 17.4365 8.48604 17.4264 8.4804 17.4151C8.47475 17.4038 8.47143 17.3914 8.47064 17.3787C8.46985 17.3661 8.47161 17.3534 8.4758 17.3414C8.47999 17.3294 8.48654 17.3184 8.49505 17.3091C8.50355 17.2997 8.51384 17.2922 8.5253 17.287C8.53676 17.2817 8.54914 17.2789 8.56172 17.2786C8.5874 17.2769 9.19088 17.243 9.41353 17.575C9.42305 17.5892 9.42858 17.6056 9.4295 17.6227C9.43043 17.6398 9.42672 17.6568 9.41878 17.6719C9.41084 17.687 9.39897 17.6997 9.38444 17.7085C9.36991 17.7173 9.35328 17.7219 9.33633 17.7219V17.7219Z" fill="#FF8A8A"/>
<path d="M18.4922 16.4558C18.4922 16.4558 19.8435 14.6005 20.8943 15.6985C21.9451 16.7965 19.9186 20.6207 18.0793 19.7876L18.4922 16.4558Z" fill="#FFB8A1"/>
<path d="M19.1362 18.648C19.1319 18.6483 19.1275 18.6483 19.1232 18.648C19.1111 18.6463 19.0994 18.6422 19.0888 18.6359C19.0782 18.6297 19.069 18.6214 19.0616 18.6115C19.0542 18.6017 19.0488 18.5904 19.0457 18.5784C19.0426 18.5665 19.0419 18.554 19.0436 18.5417C19.1882 17.6726 19.6415 16.8864 20.3188 16.3298C20.3285 16.3218 20.3397 16.3158 20.3518 16.3122C20.3638 16.3086 20.3765 16.3075 20.389 16.309C20.4014 16.3104 20.4135 16.3144 20.4244 16.3207C20.4353 16.327 20.4449 16.3354 20.4525 16.3455C20.4601 16.3556 20.4656 16.3671 20.4687 16.3794C20.4718 16.3917 20.4724 16.4045 20.4705 16.417C20.4685 16.4295 20.4641 16.4415 20.4575 16.4523C20.4509 16.4631 20.4422 16.4724 20.4319 16.4797C20.4215 16.4875 19.4055 17.2814 19.2284 18.5677C19.2251 18.59 19.2139 18.6103 19.197 18.6251C19.1801 18.6398 19.1585 18.6479 19.1362 18.648V18.648Z" fill="#FF8A8A"/>
<path d="M19.4195 17.7222C19.4025 17.7222 19.3859 17.7175 19.3713 17.7087C19.3568 17.6998 19.345 17.6872 19.337 17.6721C19.3291 17.657 19.3254 17.6399 19.3263 17.6229C19.3272 17.6058 19.3327 17.5893 19.3422 17.5751C19.5647 17.2433 20.1684 17.2773 20.1941 17.2796C20.218 17.2821 20.2401 17.2939 20.2557 17.3124C20.2713 17.331 20.2792 17.3549 20.2777 17.3791C20.2762 17.4034 20.2654 17.4262 20.2477 17.4426C20.23 17.4591 20.2066 17.468 20.1825 17.4675C20.0374 17.4588 19.6319 17.4799 19.4968 17.6815C19.4882 17.6941 19.4766 17.7044 19.4631 17.7115C19.4496 17.7186 19.4347 17.7223 19.4195 17.7222Z" fill="#FF8A8A"/>
<path d="M15.5167 11.0487C11.7381 10.1186 8.318 13.5646 9.17026 17.3922C9.77186 20.0944 11.0915 23.502 14.3345 23.5793C17.7141 23.6596 19.0704 19.947 19.553 17.1305C19.7689 15.8814 19.5331 14.5956 18.8885 13.5072C18.2438 12.4187 17.2332 11.5999 16.0406 11.1997C15.8698 11.1434 15.6952 11.0931 15.5167 11.0487Z" fill="#FFB8A1"/>
<path d="M14.6045 19.7244C14.4208 19.7189 14.2402 19.6756 14.0737 19.5971C14.0472 19.5855 14.0252 19.5655 14.0109 19.5401C13.9967 19.5147 13.991 19.4854 13.9948 19.4565L14.265 17.3626C14.2672 17.345 14.2728 17.3281 14.2815 17.3127C14.2902 17.2974 14.3019 17.2839 14.3157 17.2731C14.3296 17.2623 14.3455 17.2544 14.3624 17.2498C14.3793 17.2452 14.397 17.244 14.4144 17.2462C14.4317 17.2485 14.4485 17.2543 14.4637 17.2631C14.4789 17.2719 14.4922 17.2837 14.5028 17.2977C14.5135 17.3118 14.5213 17.3278 14.5258 17.3449C14.5304 17.362 14.5315 17.3798 14.5292 17.3973L14.2722 19.388C14.3723 19.4379 14.4832 19.4617 14.5948 19.4573C14.7063 19.4528 14.815 19.4202 14.9109 19.3624C14.9254 19.3524 14.9417 19.3454 14.9589 19.3418C14.9761 19.3382 14.9938 19.3381 15.011 19.3414C15.0283 19.3447 15.0447 19.3515 15.0594 19.3612C15.074 19.371 15.0866 19.3836 15.0965 19.3983C15.1063 19.413 15.1131 19.4295 15.1166 19.4469C15.12 19.4642 15.1201 19.4821 15.1167 19.4995C15.1133 19.5169 15.1065 19.5334 15.0967 19.5481C15.0869 19.5629 15.0744 19.5755 15.0597 19.5853C14.9256 19.6775 14.7667 19.726 14.6045 19.7244V19.7244Z" fill="#FF8A8A"/>
<path d="M14.3581 21.1039C13.889 21.1015 13.4267 20.9909 13.0064 20.7806C12.9762 20.7629 12.954 20.734 12.9447 20.7C12.9354 20.6659 12.9398 20.6296 12.9568 20.5988C12.9738 20.568 13.0022 20.5452 13.0358 20.5353C13.0693 20.5254 13.1054 20.5292 13.1362 20.5459C13.2008 20.5819 14.6754 21.3835 15.9516 20.1925C15.9645 20.1805 15.9795 20.1712 15.9959 20.1651C16.0123 20.1589 16.0298 20.1562 16.0473 20.1568C16.0648 20.1575 16.0819 20.1617 16.0978 20.1691C16.1137 20.1764 16.128 20.1869 16.1399 20.1999C16.1518 20.2128 16.161 20.228 16.1671 20.2446C16.1731 20.2611 16.1759 20.2787 16.1752 20.2964C16.1745 20.314 16.1704 20.3313 16.1631 20.3474C16.1558 20.3634 16.1454 20.3778 16.1326 20.3898C15.6552 20.8509 15.019 21.107 14.3581 21.1039V21.1039Z" fill="#FF8A8A"/>
<path d="M14.5737 21.8719C14.3844 21.8715 14.196 21.8447 14.014 21.7924C13.9803 21.7818 13.9521 21.7581 13.9357 21.7266C13.9192 21.695 13.9159 21.6582 13.9264 21.6241C13.937 21.5901 13.9604 21.5617 13.9917 21.5451C14.023 21.5286 14.0595 21.5252 14.0933 21.5358V21.5358C14.0991 21.5377 14.6898 21.7175 15.1053 21.4805C15.1361 21.463 15.1725 21.4585 15.2065 21.468C15.2406 21.4776 15.2695 21.5004 15.2869 21.5314C15.3043 21.5624 15.3087 21.5991 15.2993 21.6335C15.2898 21.6678 15.2672 21.697 15.2365 21.7145C15.0325 21.8233 14.8043 21.8775 14.5737 21.8719Z" fill="#FF8A8A"/>
<path d="M11.7621 15.903C12.1082 15.7064 12.4841 15.5687 12.8746 15.4957C12.9258 15.4888 12.9748 15.4704 13.0181 15.442C13.0614 15.4135 13.0978 15.3757 13.1248 15.3313C13.1517 15.2868 13.1685 15.2369 13.174 15.1851C13.1794 15.1333 13.1733 15.0809 13.1562 15.0317L13.141 14.9893C13.115 14.9156 13.0652 14.8529 12.9995 14.8112C12.9339 14.7695 12.8563 14.7513 12.7791 14.7595C12.4159 14.7984 11.7724 14.9267 11.3525 15.3488C11.308 15.394 11.2766 15.4506 11.2618 15.5125C11.247 15.5744 11.2493 15.6392 11.2685 15.6998C11.2838 15.7488 11.3096 15.7938 11.344 15.8316C11.3785 15.8694 11.4208 15.8991 11.4679 15.9185C11.5151 15.9379 11.5659 15.9466 11.6167 15.9439C11.6676 15.9412 11.7172 15.9273 11.7621 15.903V15.903Z" fill="#3F2037"/>
<path d="M17.273 15.903C16.9269 15.7064 16.551 15.5688 16.1604 15.4957C16.1093 15.4888 16.0602 15.4704 16.017 15.442C15.9737 15.4135 15.9372 15.3757 15.9103 15.3313C15.8833 15.2868 15.8665 15.2369 15.8611 15.1851C15.8556 15.1332 15.8617 15.0809 15.8789 15.0317L15.8939 14.9893C15.9199 14.9156 15.9697 14.8529 16.0354 14.8112C16.101 14.7695 16.1786 14.7513 16.2557 14.7595C16.619 14.7984 17.2626 14.9267 17.6824 15.3488C17.7269 15.3939 17.7583 15.4505 17.7731 15.5124C17.7879 15.5743 17.7855 15.6391 17.7663 15.6998C17.7511 15.7488 17.7254 15.7938 17.6909 15.8316C17.6565 15.8694 17.6142 15.8991 17.567 15.9185C17.5199 15.9379 17.4691 15.9466 17.4183 15.9439C17.3675 15.9412 17.3178 15.9273 17.273 15.903V15.903Z" fill="#3F2037"/>
<g opacity="0.5">
<g opacity="0.5">
<path opacity="0.5" d="M12.7378 18.3185C12.7378 18.6488 12.1346 18.9153 11.3905 18.9153C10.6464 18.9153 10.0435 18.6482 10.0435 18.3185C10.0435 17.9889 10.6466 17.7219 11.3905 17.7219C12.1345 17.7219 12.7378 17.9891 12.7378 18.3185Z" fill="#FF8A8A"/>
</g>
</g>
<g opacity="0.5">
<g opacity="0.5">
<path opacity="0.5" d="M19.0743 18.3185C19.0743 18.6488 18.4711 18.9153 17.7272 18.9153C16.9833 18.9153 16.3801 18.6482 16.3801 18.3185C16.3801 17.9889 16.9833 17.7219 17.7272 17.7219C18.4711 17.7219 19.0743 17.9891 19.0743 18.3185Z" fill="#FF8A8A"/>
</g>
</g>
<path d="M9.31072 17.9811C9.31072 17.9811 8.60093 14.036 8.82041 13.1347C9.0399 12.2334 9.49781 12.398 9.49781 12.398C9.49781 12.398 5.66995 9.23314 7.57363 7.43923C8.95186 6.14063 10.5368 8.91927 10.5368 8.91927C10.5368 8.91927 9.75261 6.18755 10.8683 5.81233C12.2591 5.34465 12.8883 8.6186 12.8883 8.6186C12.8883 8.6186 12.7735 6.17556 13.9038 6.2244C15.4716 6.29131 14.5883 8.11755 16.2882 8.83028C17.9881 9.54302 20.5564 9.90486 19.6304 12.7779C19.6304 12.7779 20.8775 12.7229 19.326 17.8499C18.9251 17.2882 18.7247 16.6062 18.7575 15.9149C18.7829 15.3844 18.7802 14.7699 18.6723 14.3923C18.6723 14.3923 17.701 13.7077 17.7451 12.7054C17.7451 12.7054 14.3232 14.7544 11.1662 12.9282C11.1662 12.9282 11.3648 14.1086 10.3713 14.2868C10.1436 14.8837 9.99867 15.5095 9.94057 16.1464C9.88048 16.7801 9.67531 17.391 9.34121 17.9311L9.31072 17.9811Z" fill="#3F2037"/>
<path d="M19.3134 10.9759C19.3134 10.9759 19.8542 9.11371 20.7277 9.59021C21.3512 9.93042 19.8986 11.3472 19.8986 11.3472C19.8986 11.3472 21.1206 10.6809 21.7234 11.1504C22.3262 11.62 20.7265 12.1749 19.8046 12.0162C18.8826 11.8575 19.3134 10.9759 19.3134 10.9759Z" fill="#3F2037"/>
<path d="M12.8314 16.9292C12.8376 17.2933 12.7046 17.5898 12.5342 17.5936C12.3637 17.5975 12.2205 17.304 12.2143 16.94C12.2081 16.576 12.341 16.2784 12.5114 16.2754C12.6819 16.2725 12.8251 16.5652 12.8314 16.9292Z" fill="#3F2037"/>
<path d="M16.0559 16.9292C16.0495 17.2933 16.1825 17.5898 16.353 17.5936C16.5234 17.5975 16.6666 17.304 16.673 16.94C16.6794 16.576 16.5461 16.2784 16.3757 16.2754C16.2053 16.2725 16.0621 16.5652 16.0559 16.9292Z" fill="#3F2037"/>
<path d="M10.8098 28.6317V32.3724H10.5427V28.6317C10.5427 28.5961 10.5568 28.5619 10.5818 28.5367C10.6069 28.5115 10.6409 28.4973 10.6763 28.4973C10.7117 28.4973 10.7457 28.5115 10.7707 28.5367C10.7958 28.5619 10.8098 28.5961 10.8098 28.6317V28.6317Z" fill="#FF7300"/>
<path d="M18.2131 28.6316V32.3723H17.946V28.6316C17.9466 28.6001 17.9581 28.5699 17.9786 28.5461C17.9991 28.5223 18.0272 28.5065 18.0581 28.5015C18.0889 28.4965 18.1206 28.5025 18.1475 28.5186C18.1744 28.5346 18.1948 28.5597 18.2052 28.5894C18.2103 28.6029 18.213 28.6172 18.2131 28.6316Z" fill="#FF7300"/>
</g>
</svg>
